<svg width="58" height="67" viewBox="0 0 58 67" fill="none" xmlns="http://www.w3.org/2000/svg">
<path d="M32.5226 16.9139V19.8828H42.8532C43.124 19.8828 43.5145 20.4414 43.5614 20.7285C43.6968 21.5819 43.6759 24.481 43.5718 25.3732C43.5171 25.831 43.0563 26.4672 42.5929 26.4672H32.5226V54.7441C39.4088 53.8441 45.993 48.7054 47.4666 41.8314H45.4515C44.8527 41.8314 44.4674 40.572 44.884 40.1039C46.722 38.1798 48.2945 35.7074 50.13 33.8247C50.8434 33.0929 51.3615 32.7101 52.2753 33.5041C53.7697 35.6712 56.0608 37.6496 57.5265 39.778C57.9301 40.3625 58.2581 40.8125 57.714 41.4926C57.1699 42.1728 55.186 41.6944 54.3555 41.834C52.835 52.4864 43.0329 60.4025 32.5226 61.4603C32.5043 62.099 32.6163 62.8904 32.2648 63.4645C32.1346 63.6792 30.1091 65.6757 29.8566 65.849C29.4765 66.1127 29.2057 66.1981 28.7449 66.0507C28.5132 65.9757 26.2872 63.8162 26.0945 63.5188C25.6728 62.8801 25.7587 62.187 25.7613 61.4603C15.2223 60.3715 5.51129 52.5096 3.92316 41.8392C2.08248 41.8521 -1.01307 42.2607 0.944756 39.5763C2.45999 37.4996 4.53498 35.5885 6.05282 33.4834C7.07599 32.6946 7.55243 33.1911 8.28401 33.954C9.40091 35.1204 12.6891 38.86 13.3921 40.1117C13.6837 40.6315 13.7956 40.9366 13.3582 41.4539C13.2879 41.5366 12.8844 41.834 12.8297 41.834H10.8146C12.3246 48.708 18.862 53.8363 25.7587 54.7466V26.4697H15.6884C15.0453 26.4697 14.7589 25.6473 14.7094 25.1198C14.6235 24.1939 14.5897 21.7371 14.7225 20.863C14.7667 20.5759 15.1286 19.8854 15.428 19.8854H25.7587V16.9165C20.2939 14.7907 18.4975 7.73054 22.3143 3.22806C25.3942 -0.405469 30.5699 -1.07787 34.457 1.75396C39.9555 5.76249 38.8308 14.4778 32.5174 16.9139H32.5226ZM41.3588 22.0785H31.2885C31.0438 22.0785 30.3486 21.5535 30.3174 21.2354L30.3721 15.745C30.5725 15.1062 31.5645 15.0235 32.0904 14.7416C39.4921 10.7977 34.6939 0.0496925 26.9953 2.57636C21.4629 4.39183 20.9761 11.8942 26.1128 14.695C26.8912 15.1192 27.7477 15.0028 28.0159 16.0321C28.2216 16.826 28.1955 19.8156 28.0914 20.7078C28.0211 21.2975 27.7061 22.0785 27.0005 22.0785H16.9302V24.2741H27.3911C27.7191 24.2741 28.2424 25.5155 28.1122 25.8827V55.719C28.0654 56.575 27.6931 57.2293 26.748 57.2035C18.9792 56.9862 10.536 50.2157 8.67714 42.7392C8.28922 41.1771 7.77633 39.5608 10.0414 39.5763L6.98747 35.8988L3.93357 39.641C4.56362 39.6306 5.44099 39.553 5.80809 40.1685C6.13873 40.7194 6.35482 42.9047 6.59695 43.7736C8.6485 51.1338 15.1651 56.6862 22.4627 58.6129C24.1523 59.0577 25.8836 59.1974 27.5785 59.5982C28.4585 60.2732 27.8935 61.6077 28.1331 62.4042C28.1695 62.5283 29.0104 63.374 29.099 63.3895C29.2526 63.4154 30.2393 62.443 30.2888 62.2749C30.5075 61.5404 29.9711 60.2112 30.6585 59.6732C31.2026 59.2465 32.9365 59.2569 33.7202 59.1017C41.7051 57.5061 49.06 52.3726 51.5333 44.3917C51.8041 43.515 52.1972 40.5978 52.4784 40.166C52.8689 39.5686 53.866 39.6177 54.4857 39.641L51.3016 35.9014L48.2477 39.5789C50.5205 39.6203 50.0311 41.0634 49.6405 42.6409C47.7895 50.0838 40.8876 55.5561 33.4598 56.9061C32.3976 57.1 30.3591 57.6948 30.307 56.1095V25.368C30.1898 25.0163 30.7288 24.2767 31.0282 24.2767H41.3588V22.0811V22.0785Z" fill="white"/>
</svg>
