<svg width="61" height="41" viewBox="0 0 61 41" fill="none" xmlns="http://www.w3.org/2000/svg">
<rect width="61" height="40.8482" fill="white"/>
<path d="M34.3135 0V16.6013H61V24.2469H34.3135V40.8482H26.6888V24.2469H0V16.6013H26.6888V0H34.3135Z" fill="#D12E30"/>
<path d="M37.0356 31.5893L54.4642 40.8482H37.0356V31.5893Z" fill="#2D2E7E"/>
<path d="M61.0002 40.8482L37.5806 27.2321H44.1122L61.0002 37.1065V40.8482Z" fill="#D12E30"/>
<path d="M60.9999 27.2321V35.4018L47.3838 27.2321H60.9999Z" fill="#2D2E7E"/>
<path d="M23.9645 28.8661V40.8482H3.26807L23.9645 28.8661Z" fill="#2D2E7E"/>
<path d="M23.4196 27.2321L0 40.8482V37.045L17.0059 27.2321H23.4196Z" fill="#D12E30"/>
<path d="M10.8929 27.2321L0 33.7678V27.2321H10.8929Z" fill="#2D2E7E"/>
<path d="M23.9642 0V9.25893L6.53564 0H23.9642Z" fill="#2D2E7E"/>
<path d="M23.4196 13.6161H17.0059L0 3.74165V0L23.4196 13.6161Z" fill="#D12E30"/>
<path d="M0 5.44641L13.6161 13.6161H0V5.44641Z" fill="#2D2E7E"/>
<path d="M57.7321 0L37.0356 11.4375V0H57.7321Z" fill="#2D2E7E"/>
<path d="M61.0002 0V3.77576L44.1453 13.6161H37.5806L61.0002 0Z" fill="#D12E30"/>
<path d="M60.9998 13.6161H50.1069L60.9998 7.08038V13.6161Z" fill="#2D2E7E"/>
</svg>
